<svg xmlns="http://www.w3.org/2000/svg" xmlns:xlink="http://www.w3.org/1999/xlink" width="200" height="200" viewBox="0 0 200 200" fill="none"><g opacity="1" transform="translate(0 0)  rotate(0)"><mask id="bg-mask-0" fill="white"><use xlink:href="#path_0"></use></mask><g mask="url(#bg-mask-0)" ><path id="路径 2" fill-rule="evenodd" style="fill:#FFFFFF" opacity="1" d="M156.86,87.93v0v0.01c0,-0.01 0,-0.01 0,-0.01zM156.86,87.94c0,-0.01 0,-0.01 0,-0.01c9.76,10.8 11.42,26.68 4.12,39.28c-4.72,8.3 -12.78,14.16 -22.11,16.07c-4.46,13.84 -17.32,23.22 -31.84,23.22h-0.29c-9.46,0 -18.46,-4.06 -24.74,-11.14c-14.22,3.05 -28.79,-3.45 -36.03,-16.08c-4.81,-8.24 -5.85,-18.15 -2.84,-27.21c-9.75,-10.81 -11.41,-26.69 -4.11,-39.3c4.71,-8.29 12.77,-14.15 22.11,-16.07c4.47,-13.83 17.32,-23.2 31.83,-23.2h0.29c9.46,0 18.46,4.06 24.74,11.14c14.22,-3.05 28.78,3.45 36.03,16.08c4.81,8.24 5.84,18.15 2.84,27.21v0zM131.81,132.88v-30.92c-0.02,-0.13 -0.1,-0.25 -0.22,-0.31l-11.18,-6.46v37.36c0,1.55 -0.83,2.98 -2.17,3.75l-26.43,15.29c-0.26,0.15 -0.52,0.31 -0.78,0.45c4.46,3.72 10.08,5.76 15.88,5.77h0.04c13.73,-0.04 24.84,-11.18 24.86,-24.93zM53.49,134.93c2.19,3.79 5.33,6.93 9.12,9.12c7.7,4.44 17.17,4.44 24.87,0l26.72,-15.45c0.1,-0.08 0.16,-0.2 0.16,-0.32v-12.95l-32.27,18.67c-1.34,0.78 -3.01,0.78 -4.35,0l-26.43,-15.3l-0.78,-0.46c-1,5.74 0.05,11.65 2.96,16.7zM46.54,77.12c-6.84,11.92 -2.77,27.14 9.1,34.03l26.73,15.47c0.12,0.05 0.26,0.04 0.38,-0.03l11.17,-6.46l-32.27,-18.67c-1.34,-0.77 -2.17,-2.19 -2.17,-3.74v-30.61l0.01,-0.92c-5.46,2.01 -10.05,5.88 -12.95,10.93zM138.34,98.52c1.33,0.77 2.15,2.19 2.15,3.73v0.04v31.51c9.06,-3.35 15.36,-11.64 16.18,-21.27c0.83,-9.63 -3.98,-18.87 -12.33,-23.71l-26.72,-15.46c-0.13,-0.05 -0.27,-0.04 -0.38,0.04l-11.17,6.46l32.27,18.66zM139.16,57.1c-7.91,-5.53 -18.29,-5.98 -26.65,-1.16l-26.72,15.45c-0.11,0.07 -0.16,0.2 -0.16,0.32v12.95l32.27,-18.67c1.34,-0.78 3,-0.78 4.34,0l26.44,15.29c0.26,0.16 0.52,0.31 0.78,0.47c1.63,-9.52 -2.39,-19.13 -10.3,-24.65zM79.58,67.47v-0.02c0,-1.55 0.82,-2.97 2.16,-3.74l26.44,-15.3c0.23,-0.14 0.58,-0.34 0.78,-0.45c-7.41,-6.18 -17.73,-7.51 -26.47,-3.41c-8.73,4.1 -14.32,12.89 -14.33,22.56v30.91c0.02,0.14 0.1,0.25 0.22,0.31l11.17,6.46zM85.62,91.68v16.63l14.37,8.31l14.38,-8.31v-16.63l-14.38,-8.32l-14.36,8.32z"></path></g></g><defs><rect id="path_0" x="0" y="0" width="200" height="200" /></defs></svg>