<svg xmlns="http://www.w3.org/2000/svg" xmlns:xlink="http://www.w3.org/1999/xlink" width="32" height="32" viewBox="0 0 32 32" fill="none"><defs><rect id="path_0" x="0" y="0" width="32" height="32" /><filter id="filter_10" x="0" y="0" width="19.12" height="18.54" filterUnits="userSpaceOnUse" color-interpolation-filters="sRGB"></filter><filter id="filter_14" x="0" y="0" width="6.13" height="11.72" filterUnits="userSpaceOnUse" color-interpolation-filters="sRGB"></filter></defs><g opacity="1" transform="translate(0 0)  rotate(0 16 16)"><mask id="bg-mask-0" fill="white"><use xlink:href="#path_0"></use></mask><g mask="url(#bg-mask-0)" ><g opacity="1" transform="translate(0 0)  rotate(0 16 16)"><path id="矩形 1" fill-rule="evenodd" transform="translate(0 0)  rotate(0 16 16)" opacity="1" d="M32,32L32,0L0,0L0,32L32,32Z " /><g opacity="1" transform="translate(6 6.722924592294021)  rotate(0 10.000183560919485 9.274746899179316)"><g opacity="1" transform="translate(0 0.009493798358633398)  rotate(0 9.56 9.27)"><path id="路径 3" fill-rule="evenodd" style="fill:#FFFFFF" transform="translate(0 0)  rotate(0 9.56 9.27)" opacity="1" d="M4.6,3.53C4.6,3.22 4.63,2.9 4.69,2.59C4.74,2.28 4.83,1.98 4.94,1.68C5.05,1.39 5.18,1.11 5.34,0.85C5.52,0.54 5.73,0.26 5.97,0C5.17,0.37 4.42,0.83 3.73,1.39C2,2.8 0.79,4.75 0.27,6.92C0.09,7.69 0,8.48 0,9.27C0,10.97 0.42,12.65 1.24,14.14C1.3,13.65 1.42,13.17 1.61,12.72C2.23,14.21 3.21,15.52 4.45,16.53C5.7,17.55 7.18,18.24 8.77,18.54C8.49,18.19 8.27,17.8 8.1,17.39C8.94,17.67 9.82,17.81 10.7,17.84C10.78,17.84 10.86,17.84 10.94,17.84C12.34,17.84 13.73,17.52 14.99,16.9C14.78,16.78 14.58,16.65 14.39,16.5C15.79,15.96 17.03,15.08 17.99,13.92C18.44,13.39 18.81,12.8 19.12,12.18C18.64,12.35 18.15,12.45 17.64,12.48C17.53,12.49 17.42,12.49 17.31,12.49C17.28,12.49 17.24,12.49 17.21,12.49C17.27,12.24 17.32,11.97 17.35,11.71C17.36,11.54 17.37,11.36 17.37,11.19C17.37,10.99 17.36,10.79 17.34,10.6C16.83,10.85 16.28,11.02 15.72,11.09C15.56,11.12 15.4,11.13 15.24,11.14C15.29,10.88 15.32,10.62 15.34,10.36C15.34,10.28 15.34,10.19 15.34,10.1C15.34,9.73 15.3,9.36 15.23,8.99C14.83,9.23 14.4,9.41 13.95,9.53C13.79,9.57 13.63,9.61 13.46,9.64L13.45,9.63C13.5,9.39 13.53,9.14 13.55,8.9C13.55,8.8 13.56,8.71 13.56,8.61C13.56,8.3 13.53,7.98 13.47,7.67C12.92,8.25 12.26,8.71 11.53,9.02C10.79,9.34 10,9.5 9.21,9.5C8.26,9.5 7.34,9.27 6.5,8.84C6.88,8.69 7.24,8.5 7.58,8.27C6.69,7.84 5.93,7.17 5.41,6.33C4.88,5.49 4.6,4.52 4.6,3.53Z " /></g><g opacity="1" transform="translate(13.87036712183897 0)  rotate(0 3.0649999999999995 5.86)"><path id="路径 4" fill-rule="evenodd" style="fill:#FFFFFF" transform="translate(0 0)  rotate(0 3.065 5.86)" opacity="1" d="M2.07,9.55C2.07,9.82 2.05,10.08 2.01,10.34C2.48,10.3 2.93,10.19 3.36,10.02C3.59,9.93 3.81,9.83 4.02,9.71C4.05,9.89 4.07,10.06 4.09,10.24C4.1,10.37 4.1,10.51 4.1,10.64C4.1,11 4.06,11.37 3.99,11.72C4.53,11.7 5.07,11.59 5.58,11.4C5.94,10.43 6.13,9.39 6.13,8.34C6.13,8.12 6.13,7.89 6.11,7.66C6.06,7 5.93,6.34 5.73,5.7C5.65,5.92 5.55,6.13 5.43,6.32C5.27,5.28 4.9,4.28 4.35,3.39C3.8,2.49 3.08,1.71 2.22,1.1C1.62,0.68 0.97,0.34 0.28,0.09C0.19,0.06 0.09,0.03 0,0C0.65,0.84 1.06,1.84 1.19,2.89C1.19,2.93 1.2,2.97 1.2,3C1.2,3.01 1.2,3.01 1.2,3.01C1.2,3.05 1.21,3.09 1.21,3.13L1.21,3.15C1.21,3.18 1.22,3.22 1.22,3.26C1.22,3.3 1.22,3.34 1.22,3.37C1.22,3.4 1.22,3.43 1.23,3.46C1.23,3.46 1.23,3.46 1.23,3.47C1.23,3.48 1.23,3.5 1.23,3.52C1.23,3.55 1.23,3.58 1.23,3.61C1.23,4.81 0.86,5.99 0.17,6.97C0.25,7.33 0.28,7.7 0.28,8.06C0.28,8.31 0.27,8.56 0.23,8.8C0.57,8.72 0.89,8.61 1.2,8.47C1.43,8.36 1.66,8.24 1.87,8.1C1.91,8.25 1.95,8.41 1.98,8.57C2.04,8.89 2.07,9.22 2.07,9.55Z " /></g></g></g></g></g></svg>