<svg xmlns="http://www.w3.org/2000/svg" xmlns:xlink="http://www.w3.org/1999/xlink" width="1024" height="1024" viewBox="0 0 1024 1024" fill="none"><defs><path id="path_0"
        transform="translate(0 0) rotate(0 512 512)"
        d="M226,1024L798,1024C922.82,1024 1024,922.82 1024,798L1024,226C1024,101.18 922.82,0 798,0L226,0C101.18,0 0,101.18 0,226L0,798C0,922.82 101.18,1024 226,1024Z" /><linearGradient id="linear_0" x1="49.9668093%" y1="3.182158079999997%" x2="50.9668093%" y2="119.479564%" gradientUnits="objectBoundingBox"><stop offset="0" stop-color="#F29739" stop-opacity="1" /><stop offset="0.15" stop-color="#EF842B" stop-opacity="1" /><stop offset="0.37" stop-color="#EC701D" stop-opacity="1" /><stop offset="0.59" stop-color="#EB6414" stop-opacity="1" /><stop offset="0.8" stop-color="#EA6011" stop-opacity="1" /></linearGradient><linearGradient id="linear_1" x1="49.9668093%" y1="3.182158079999997%" x2="50.9668093%" y2="119.479564%" gradientUnits="objectBoundingBox"><stop offset="0" stop-color="#F29739" stop-opacity="1" /><stop offset="0.15" stop-color="#EF842B" stop-opacity="1" /><stop offset="0.37" stop-color="#EC701D" stop-opacity="1" /><stop offset="0.59" stop-color="#EB6414" stop-opacity="1" /><stop offset="0.8" stop-color="#EA6011" stop-opacity="1" /></linearGradient></defs><g opacity="1" transform="translate(0 0)  rotate(0 512 512)"><g opacity="1" transform="translate(0 0)  rotate(0 512 512)"><path id="path-1" fill-rule="evenodd"  transform="translate(0 0)  rotate(0 512 512)" opacity="1" d="M0,1024L1024,1024L1024,0L0,0L0,1024Z " /><g opacity="1" transform="translate(0 0)  rotate(0 512 512)"><mask id="mask-0" fill="white"><use xlink:href="#path_0"></use></mask><g mask="url(#mask-0)"></g><g mask="url(#mask-0)"><g opacity="1" transform="translate(0 0)  rotate(0 512 512)"><g opacity="1" transform="translate(0 0)  rotate(0 512 512)"><path id="-背景" fill-rule="evenodd"  transform="translate(0 0)  rotate(0 512 512)" opacity="1" d="M1024,229.68C1024,103.35 921.37,0 795.94,0L228.06,0C102.68,0 0,103.35 0,229.68L0,794.32C0,920.65 102.68,1024 228.06,1024L795.94,1024C921.32,1024 1024,920.65 1024,794.32L1024,229.68Z " /><g opacity="1" transform="translate(180.0000002033147 125.00000011331862)  rotate(0 332.00000005694415 386.9999999433407)"><path id="形状结合" fill-rule="evenodd" fill="url(#linear_0)" transform="translate(147.96678761878522 649.9316267023928)  rotate(0 183.85982913724266 62.034186592144295)" opacity="1" d="M183.94,44.45C91.26,44.45 16.18,6.94 3.07,0.11C-0.01,-0.35 -0.27,0.91 0.17,2.11C9.71,13.68 103.09,124.07 183.99,124.07C263.56,124.07 355.32,17.12 367.33,2.7C367.92,1.47 368.28,-0.35 364.97,0.06C352.14,6.78 276.62,44.45 183.94,44.45Z " /><path id="形状结合" fill-rule="evenodd" fill="url(#linear_1)" transform="translate(0 0)  rotate(0 332.00000005694415 331.8077629433407)" opacity="1" d="M335.3,647.86L335.3,357.53C333.52,334.85 321.36,333 306.68,354.55L220.33,481.39C155.86,433.53 129.22,349.81 154.18,273.51C179.15,197.2 250.13,145.41 330.44,144.9C410.74,144.38 482.38,195.26 508.32,271.24C534.27,347.22 508.7,431.27 444.84,479.95C441.07,483.41 432.5,493.52 438.3,509.84L488.73,606.63C490.79,609.5 497.2,616.22 509.5,612.4C634.4,533.39 692.01,381.35 650.82,239.44C609.64,97.53 479.59,-0.07 331.78,0C152.08,0.22 5.14,143.25 0.13,322.82C-4.88,502.39 133.87,653.39 313.27,663.62C320.79,663.18 332.5,660.38 335.3,647.86Z " /></g></g></g></g></g></g></g></svg>