<?xml version="1.0" encoding="utf-8"?>
<!-- Generator: Adobe Illustrator 26.0.1, SVG Export Plug-In . SVG Version: 6.00 Build 0)  -->
<svg version="1.1" id="图层_1" xmlns="http://www.w3.org/2000/svg" xmlns:xlink="http://www.w3.org/1999/xlink" x="0px" y="0px"
	 viewBox="0 0 226.4 226.4" style="enable-background:new 0 0 226.4 226.4;" xml:space="preserve">
<style type="text/css">
	.st0{fill:#202023;}
	.st1{fill:url(#SVGID_1_);}
	.st2{fill:#4052EC;}
</style>
<g>
	<path class="st0" d="M172,89.8l-5.4,2.9l-5.4,2.9l-5.4,2.9l-5.4,2.9l-5.4,2.9l-5.4,2.9l-5.4,2.9l-5.4,2.9l-5.3,2.9l-5.4,3l-3.6,1.9
		c-0.5,0.3-1,0.7-1.3,1.2s-0.5,1.1-0.5,1.7v50.6c0,0.6,0.2,1.2,0.5,1.7s0.8,0.9,1.3,1.2s1.2,0.5,1.8,0.4c0.6,0,1.2-0.2,1.8-0.5
		l5.4-3l5.4-2.9l5.4-2.9l5.4-2.9l5.4-2.9l5.4-2.9l5.4-2.9l5.4-2.9l5.4-2.9l5.4-3l3.6-1.9c0.5-0.3,1-0.7,1.3-1.2s0.5-1.1,0.5-1.7V116
		c0-0.6-0.2-1.2-0.5-1.7s-0.8-0.9-1.3-1.2c-0.5-0.3-1.2-0.5-1.8-0.4c-0.6,0-1.2,0.2-1.8,0.5l0,0l-5.4,2.9l-5.4,2.9l-5.4,2.9
		l-5.4,2.9l-3.6,1.9c-0.5,0.3-1,0.7-1.3,1.2c-0.3,0.5-0.5,1.1-0.5,1.7v3.9c0,0.6,0.2,1.2,0.5,1.7s0.8,0.9,1.3,1.2s1.2,0.5,1.8,0.5
		s1.2-0.2,1.8-0.5l5.4-2.9l5.4-2.9c0.5-0.3,1.2-0.5,1.8-0.5s1.2,0.2,1.8,0.4c0.5,0.3,1,0.7,1.3,1.2s0.5,1.1,0.5,1.7l0,0v3.9
		c0,0.6-0.2,1.2-0.5,1.7s-0.8,0.9-1.3,1.2l-3.6,1.9l-5.4,3l-5.4,2.9l-5.4,2.9l-5.4,2.9l-5.4,2.9l-5.4,2.9c-0.5,0.3-1.2,0.5-1.8,0.5
		c-0.6,0-1.2-0.2-1.8-0.5c-0.5-0.3-1-0.7-1.3-1.2s-0.5-1.1-0.5-1.7v-27.2c0-0.6,0.2-1.2,0.5-1.7c0.3-0.5,0.8-0.9,1.3-1.2l3.6-1.9
		l5.4-2.9l5.4-3l5.4-2.9l5.4-2.9l5.3-2.9l5.4-3l5.4-2.9l5.4-2.9l3.6-1.9c0.5-0.3,1-0.7,1.3-1.2s0.5-1.1,0.5-1.7v-3.9
		c0-0.6-0.2-1.2-0.5-1.7s-0.8-0.9-1.3-1.2s-1.2-0.5-1.8-0.5C173.1,89.4,172.5,89.5,172,89.8L172,89.8z"/>
	<path class="st0" d="M126.2,88.2l8.3,4.5c1.6,0.9,3.5,1.4,5.4,1.4s3.7-0.5,5.4-1.4l0,0l5.4-2.9l5.4-2.9l5.4-2.9l5.4-2.9
		c0.5-0.3,1-0.7,1.3-1.2s0.5-1.1,0.5-1.7s-0.2-1.2-0.5-1.7s-0.8-0.9-1.3-1.2l0,0l-5.4-2.9l-5.4-2.9l-5.4-2.9l-5.4-2.9l-5.4-3
		l-5.4-2.9l-5.4-2.9l-5.3-2.9l-5.4-2.9L113,52l-5.4,3l-5.4,2.9L97,60.6l-5.4,3l-5.4,2.9l-5.4,2.9l-5.4,2.9L70,75.2v11.6l5.4-2.9
		l5.4-2.9l5.4-2.9l5.4-2.9l5.4-2.9l5.4,2.9l5.4,2.9l5.4,2.9l5.4,2.9l5.4,2.9 M113,63.6l5.4-3l5.4,3l5.4,2.9l5.4,2.9l5.4,2.9l5.4,2.9
		c0.5,0.3,1,0.7,1.3,1.2s0.5,1.1,0.5,1.7s-0.2,1.2-0.5,1.7s-0.8,0.9-1.3,1.2c-1.6,0.9-3.5,1.4-5.4,1.4s-3.7-0.5-5.4-1.4l0,0
		l-5.4-2.9l-5.4-2.9l-5.4-2.9l-5.4-2.9l-5.4-2.9L113,63.6z"/>
	<path class="st0" d="M113,109.2v-7.4l10.2-7c0,0,7.8-4.4-3.4-10c3.3-2.3,1-4.1,1-4.1l15.2,8.7c0,0,3.1,7.6-8.7,14.8
		c-11.8,7.2-14.3,8.8-14.3,8.8V109.2z"/>
	<g>
		
			<linearGradient id="SVGID_1_" gradientUnits="userSpaceOnUse" x1="193.954" y1="735.6062" x2="102.2079" y2="735.6062" gradientTransform="matrix(1 0 0 1 0 -622.3937)">
			<stop  offset="0" style="stop-color:#000000"/>
			<stop  offset="1" style="stop-color:#000000;stop-opacity:0"/>
		</linearGradient>
		<path class="st1" d="M113.2,198.6c-5.4,0-10.7-1.3-15.6-4l-49.9-27.2c-10.5-5.7-17.1-16.7-17.1-28.7v-51c0-12,6.5-23,17.1-28.7
			l49.9-27.2c9.8-5.3,21.5-5.3,31.3,0L178.8,59c10.5,5.7,17.1,16.7,17.1,28.7v51.1c0,12-6.5,23-17.1,28.7l-49.9,27.2
			C123.9,197.3,118.6,198.6,113.2,198.6z M113.2,38.7c-3.6,0-7.2,0.9-10.4,2.7L52.9,68.5c-7,3.8-11.4,11.2-11.4,19.2v51.1
			c0,8,4.4,15.3,11.4,19.2l49.9,27.2c6.5,3.6,14.3,3.6,20.9,0l49.9-27.2c7-3.8,11.4-11.2,11.4-19.2V87.7c0-8-4.4-15.3-11.4-19.2
			l-49.9-27.2C120.4,39.6,116.8,38.7,113.2,38.7z"/>
	</g>
	<path class="st2" d="M66.2,140.1c-0.6-18.1-5.8-24.2-10.4-28.3c11.1,3,31.9,5.9,30,22.1c-2.4,20.5,6.3,30.6,12.8,36.7
		C82.7,167.9,66.7,155.6,66.2,140.1z"/>
</g>
</svg>
