<svg xmlns="http://www.w3.org/2000/svg" xmlns:xlink="http://www.w3.org/1999/xlink" width="30" height="30" viewBox="0 0 30 30" fill="none"><defs><rect id="path_0" x="0" y="0" width="30" height="30" /></defs><g opacity="1" transform="translate(0 0)  rotate(0 15 15)"><mask id="bg-mask-0" fill="white"><use xlink:href="#path_0"></use></mask><g mask="url(#bg-mask-0)" ><path id="分组 1" fill-rule="evenodd" style="fill:#FFFFFF" transform="translate(3.9306736238984286 3.7164189844020257)  rotate(0 10.52566318805077 11.325040507799)" opacity="1" d="M9.9,17.5L11.2,17.42C13.35,17.3 15.15,16.25 15.9,14.68C17.1,12.22 14.77,9.05 12.27,9.77C11.97,9.85 11.73,9.92 11.73,9.9C11.73,9.88 11.92,9.17 12.13,8.3L12.55,6.73L12.1,5.93C11.85,5.48 11.58,5.12 11.52,5.12C11.43,5.12 10.42,5.65 9.27,6.3L7.15,7.48L6.12,6.93C5.22,6.47 5.12,6.37 5.37,6.2C6.27,5.58 11.08,2.93 11.2,2.98C11.28,3.02 12.93,3.93 14.87,5.03L18.4,7.03L18.4,15.53L14.87,17.53C12.92,18.63 11.25,19.55 11.15,19.57C11.07,19.6 9.37,18.68 7.4,17.55L3.82,15.5L3.77,13.63L3.72,11.78L1.07,11.78L1.07,16.93L6.08,19.78L11.1,22.65L11.8,22.27C12.18,22.05 14.43,20.78 16.78,19.45L21.05,17.03L21.05,5.53L16.2,2.78C13.52,1.27 11.25,0.02 11.15,0C11.02,-0.03 0.27,6.03 0,6.3C-0.05,6.35 1.32,7.2 3.03,8.2C4.75,9.2 6.3,10.12 6.48,10.23C6.78,10.42 6.98,10.35 8.22,9.6C8.98,9.15 9.63,8.8 9.67,8.82C9.7,8.85 9.57,9.43 9.4,10.12C8.98,11.73 8.98,11.87 9.5,12.75L9.93,13.48L10.47,12.98C11.17,12.32 11.6,12.12 12.32,12.12C13.13,12.12 13.5,12.33 13.72,12.97C14.12,14.15 12.88,15.1 10.95,15.12L9.9,15.12L9.9,17.5Z " /></g></g></svg>