<?xml version="1.0" standalone="no"?><!DOCTYPE svg PUBLIC "-//W3C//DTD SVG 1.1//EN" "http://www.w3.org/Graphics/SVG/1.1/DTD/svg11.dtd"><svg t="1715586640689" class="icon" viewBox="0 0 1024 1024" version="1.1" xmlns="http://www.w3.org/2000/svg" p-id="6053" xmlns:xlink="http://www.w3.org/1999/xlink" width="200" height="200"><path d="M99.555556 99.555556m170.666666 0l483.555556 0q170.666667 0 170.666666 170.666666l0 483.555556q0 170.666667-170.666666 170.666666l-483.555556 0q-170.666667 0-170.666666-170.666666l0-483.555556q0-170.666667 170.666666-170.666666Z" fill="#E4DCD5" p-id="6054"></path><path d="M99.555556 99.555556m170.666666 0l483.555556 0q170.666667 0 170.666666 170.666666l0 412.444445q0 170.666667-170.666666 170.666666l-483.555556 0q-170.666667 0-170.666666-170.666666l0-412.444445q0-170.666667 170.666666-170.666666Z" fill="#FEF6EE" p-id="6055"></path><path d="M512 99.555556h241.777778c94.250667 0 170.666667 76.416 170.666666 170.666666v241.777778H512V99.555556z" fill="#FF6400" p-id="6056"></path><path d="M512 512m-42.666667 0a42.666667 42.666667 0 1 0 85.333334 0 42.666667 42.666667 0 1 0-85.333334 0Z" fill="#0A3E47" p-id="6057"></path><path d="M497.777778 213.333333m14.222222 0l0 0q14.222222 0 14.222222 14.222223l0 56.888888q0 14.222222-14.222222 14.222223l0 0q-14.222222 0-14.222222-14.222223l0-56.888888q0-14.222222 14.222222-14.222223Z" fill="#0A3E47" p-id="6058"></path><path d="M649.016528 246.242472m12.316805 7.111111l0 0q12.316806 7.111111 5.205695 19.427917l-28.444444 49.267223q-7.111111 12.316806-19.427917 5.205694l0 0q-12.316806-7.111111-5.205695-19.427917l28.444444-49.267223q7.111111-12.316806 19.427917-5.205694Z" fill="#0A3E47" p-id="6059"></path><path d="M763.535306 350.349861m7.111111 12.316806l0 0q7.111111 12.316806-5.205694 19.427917l-49.267223 28.444444q-12.316806 7.111111-19.427917-5.205695l0 0q-7.111111-12.316806 5.205694-19.427917l49.267223-28.444444q12.316806-7.111111 19.427917 5.205695Z" fill="#0A3E47" p-id="6060"></path><path d="M810.666667 497.777778m0 14.222222l0 0q0 14.222222-14.222223 14.222222l-56.888888 0q-14.222222 0-14.222223-14.222222l0 0q0-14.222222 14.222223-14.222222l56.888888 0q14.222222 0 14.222223 14.222222Z" fill="#0A3E47" p-id="6061"></path><path d="M777.757528 649.016528m-7.111111 12.316805l0 0q-7.111111 12.316806-19.427917 5.205695l-49.267223-28.444444q-12.316806-7.111111-5.205694-19.427917l0 0q7.111111-12.316806 19.427917-5.205695l49.267223 28.444444q12.316806 7.111111 5.205694 19.427917Z" fill="#0A3E47" p-id="6062"></path><path d="M673.650139 763.535306m-12.316806 7.111111l0 0q-12.316806 7.111111-19.427917-5.205694l-28.444444-49.267223q-7.111111-12.316806 5.205695-19.427917l0 0q12.316806-7.111111 19.427917 5.205694l28.444444 49.267223q7.111111 12.316806-5.205695 19.427917Z" fill="#0A3E47" p-id="6063"></path><path d="M526.222222 810.666667m-14.222222 0l0 0q-14.222222 0-14.222222-14.222223l0-56.888888q0-14.222222 14.222222-14.222223l0 0q14.222222 0 14.222222 14.222223l0 56.888888q0 14.222222-14.222222 14.222223Z" fill="#0A3E47" p-id="6064"></path><path d="M374.983472 777.757528m-12.316805-7.111111l0 0q-12.316806-7.111111-5.205695-19.427917l28.444444-49.267223q7.111111-12.316806 19.427917-5.205694l0 0q12.316806 7.111111 5.205695 19.427917l-28.444444 49.267223q-7.111111 12.316806-19.427917 5.205694Z" fill="#0A3E47" p-id="6065"></path><path d="M260.464694 673.650139m-7.111111-12.316806l0 0q-7.111111-12.316806 5.205694-19.427917l49.267223-28.444444q12.316806-7.111111 19.427917 5.205695l0 0q7.111111 12.316806-5.205694 19.427917l-49.267223 28.444444q-12.316806 7.111111-19.427917-5.205695Z" fill="#0A3E47" p-id="6066"></path><path d="M213.333333 526.222222m0-14.222222l0 0q0-14.222222 14.222223-14.222222l56.888888 0q14.222222 0 14.222223 14.222222l0 0q0 14.222222-14.222223 14.222222l-56.888888 0q-14.222222 0-14.222223-14.222222Z" fill="#0A3E47" p-id="6067"></path><path d="M246.242472 374.983472m7.111111-12.316805l0 0q7.111111-12.316806 19.427917-5.205695l49.267223 28.444444q12.316806 7.111111 5.205694 19.427917l0 0q-7.111111 12.316806-19.427917 5.205695l-49.267223-28.444444q-12.316806-7.111111-5.205694-19.427917Z" fill="#0A3E47" p-id="6068"></path><path d="M350.349861 260.464694m12.316806-7.111111l0 0q12.316806-7.111111 19.427917 5.205694l28.444444 49.267223q7.111111 12.316806-5.205695 19.427917l0 0q-12.316806 7.111111-19.427917-5.205694l-28.444444-49.267223q-7.111111-12.316806 5.205695-19.427917Z" fill="#0A3E47" p-id="6069"></path></svg>